M48
METRIC,LZ,000.000
;FILE_FORMAT=3:3
;TYPE=PLATED
;Layer: PTH_Through
;EasyEDA v6.5.57, 2026-06-26 15:31:05
;74b669f571ac4ae5bc3ee94b65b5d221,d2bf926b742241f7ae53671983aaaaa4,10
;Gerber Generator version 0.2
;Holesize 1 = 0.701 mm
T01C0.701
;Holesize 2 = 0.889 mm
T02C0.889
;Holesize 3 = 0.900 mm
T03C0.900
;Holesize 4 = 0.915 mm
T04C0.915
;Holesize 5 = 1.000 mm
T05C1.000
;Holesize 6 = 1.200 mm
T06C1.200
%
G05
G90
T01
X063373Y034152
X063373Y032650
X020955Y039382
X020955Y040883
X075830Y039751
X077332Y039751
T02
X113411Y040132
X110871Y040132
X108331Y040132
X105791Y040132
X103251Y040132
X100711Y040132
X063754Y004826
X066294Y004826
T03
X049276Y046482
X041656Y046482
X105410Y012446
X105410Y004826
X082677Y036322
X082677Y043942
X086741Y044069
X086741Y036449
X094742Y043942
X094742Y036322
X091313Y036322
X091313Y043942
X070104Y043942
X070104Y036322
X065659Y036322
X065659Y043942
X046228Y035941
X046228Y043561
X026543Y036068
X026543Y043688
X115062Y030099
X107442Y030099
X107569Y026670
X115189Y026670
X072771Y011684
X072771Y019304
X064770Y025730
X064770Y019228
T04
X085420Y031471
X087960Y031471
X090500Y031471
X093040Y031471
X108839Y020955
X110871Y020955
X112903Y020955
X114935Y020412G85X114935Y021498
X106807Y020412G85X106807Y021498
X007620Y040005
X009652Y040005
X011684Y040005
X013716Y039462G85X013716Y040548
X005588Y039462G85X005588Y040548
X062249Y009282
X064799Y009282
X067349Y009282
T05
X006731Y010792G85X006731Y010798
X009271Y010792G85X009271Y010798
X011811Y010792G85X011811Y010798
X014351Y010792G85X014351Y010798
X016891Y010792G85X016891Y010798
X019431Y010792G85X019431Y010798
X021971Y010792G85X021971Y010798
X024511Y010792G85X024511Y010798
X027051Y010792G85X027051Y010798
X029591Y010792G85X029591Y010798
X032131Y010792G85X032131Y010798
X034671Y010792G85X034671Y010798
X037211Y010792G85X037211Y010798
X039751Y010792G85X039751Y010798
X042291Y010792G85X042291Y010798
X044831Y010792G85X044831Y010798
X047367Y010785G85X047367Y010790
X049911Y010792G85X049911Y010798
X052451Y010792G85X052451Y010798
X054991Y010792G85X054991Y010798
X054991Y028572G85X054991Y028578
X052451Y028572G85X052451Y028578
X049983Y028572G85X049983Y028578
X047371Y028572G85X047371Y028578
X044831Y028572G85X044831Y028578
X042291Y028572G85X042291Y028578
X039751Y028572G85X039751Y028578
X037211Y028572G85X037211Y028578
X034671Y028572G85X034671Y028578
X032131Y028572G85X032131Y028578
X029591Y028572G85X029591Y028578
X027051Y028572G85X027051Y028578
X024511Y028572G85X024511Y028578
X021971Y028572G85X021971Y028578
X019431Y028572G85X019431Y028578
X016891Y028572G85X016891Y028578
X014351Y028572G85X014351Y028578
X011811Y028572G85X011811Y028578
X009271Y028572G85X009271Y028578
X006731Y028572G85X006731Y028578
X052578Y036068
X055118Y036068
X057658Y036068
X060198Y036068
X060198Y043688
X057658Y043688
X055118Y043688
X052578Y043688
X033147Y036195
X035687Y036195
X038227Y036195
X040767Y036195
X040767Y043815
X038227Y043815
X035687Y043815
X033147Y043815
T06
X111887Y014224
X111887Y009144
M30
