G04 Layer: TopLayer*
G04 EasyEDA v6.5.57, 2026-06-26 15:31:05*
G04 74b669f571ac4ae5bc3ee94b65b5d221,d2bf926b742241f7ae53671983aaaaa4,10*
G04 Gerber Generator version 0.2*
G04 Scale: 100 percent, Rotated: No, Reflected: No *
G04 Dimensions in millimeters *
G04 leading zeros omitted , absolute positions ,4 integer and 5 decimal *
%FSLAX45Y45*%
%MOMM*%

%ADD10C,1.6000*%
%ADD11C,1.8796*%
%ADD12C,1.0000*%
%ADD13C,1.5748*%
%ADD14R,1.5748X1.5748*%
%ADD15R,1.6000X1.6000*%
%ADD16C,1.7000*%
%ADD17C,1.7780*%
%ADD18C,2.5000*%
%ADD19C,0.0134*%
%ADD20O,1.599997X1.999996*%
%ADD21O,1.524X2.999994*%
%ADD22R,1.5240X1.5240*%
%ADD23C,1.5240*%
%ADD24R,1.6000X1.3970*%

%LPD*%
D10*
G01*
X5499100Y1587500D03*
G01*
X5499100Y1841500D03*
G01*
X5499100Y2095500D03*
G01*
X5499100Y2349500D03*
D11*
G01*
X4927600Y4648200D03*
G01*
X4165600Y4648200D03*
G01*
X10541000Y1244600D03*
G01*
X10541000Y482600D03*
D12*
G01*
X6337300Y3415156D03*
G01*
X6337300Y3265043D03*
G01*
X2095500Y3938193D03*
G01*
X2095500Y4088307D03*
G01*
X7583043Y3975100D03*
G01*
X7733156Y3975100D03*
D13*
G01*
X11341100Y4013200D03*
G01*
X11087100Y4013200D03*
G01*
X10833100Y4013200D03*
G01*
X10579100Y4013200D03*
G01*
X10325100Y4013200D03*
D14*
G01*
X10071100Y4013200D03*
G01*
X6375400Y482600D03*
D13*
G01*
X6629400Y482600D03*
D15*
G01*
X673100Y1079500D03*
D10*
G01*
X927100Y1079500D03*
G01*
X1181100Y1079500D03*
G01*
X1435100Y1079500D03*
G01*
X1689100Y1079500D03*
G01*
X1943100Y1079500D03*
G01*
X2197100Y1079500D03*
G01*
X2451100Y1079500D03*
G01*
X2705100Y1079500D03*
G01*
X2959100Y1079500D03*
G01*
X3213100Y1079500D03*
G01*
X3467100Y1079500D03*
G01*
X3721100Y1079500D03*
G01*
X3975100Y1079500D03*
G01*
X4229100Y1079500D03*
G01*
X4483100Y1079500D03*
G01*
X4736718Y1078763D03*
G01*
X4991100Y1079500D03*
G01*
X5245100Y1079500D03*
G01*
X5499100Y1079500D03*
G01*
X5499100Y2857500D03*
G01*
X5245100Y2857500D03*
G01*
X4998262Y2857500D03*
G01*
X4737100Y2857500D03*
G01*
X4483100Y2857500D03*
G01*
X4229100Y2857500D03*
G01*
X3975100Y2857500D03*
G01*
X3721100Y2857500D03*
G01*
X3467100Y2857500D03*
G01*
X3213100Y2857500D03*
G01*
X2959100Y2857500D03*
G01*
X2705100Y2857500D03*
G01*
X2451100Y2857500D03*
G01*
X2197100Y2857500D03*
G01*
X1943100Y2857500D03*
G01*
X1689100Y2857500D03*
G01*
X1435100Y2857500D03*
G01*
X1181100Y2857500D03*
G01*
X927100Y2857500D03*
G01*
X673100Y2857500D03*
D16*
G01*
X8542020Y3147060D03*
G01*
X8796020Y3147060D03*
G01*
X9050020Y3147060D03*
G01*
X9304020Y3147060D03*
D11*
G01*
X8267700Y3632200D03*
G01*
X8267700Y4394200D03*
G01*
X8674100Y4406900D03*
G01*
X8674100Y3644900D03*
G01*
X9474200Y4394200D03*
G01*
X9474200Y3632200D03*
G01*
X9131300Y3632200D03*
G01*
X9131300Y4394200D03*
G01*
X7010400Y4394200D03*
G01*
X7010400Y3632200D03*
G01*
X6565900Y3632200D03*
G01*
X6565900Y4394200D03*
G01*
X4622800Y3594100D03*
G01*
X4622800Y4356100D03*
G01*
X2654300Y3606800D03*
G01*
X2654300Y4368800D03*
G01*
X11506200Y3009900D03*
G01*
X10744200Y3009900D03*
G01*
X10756900Y2667000D03*
G01*
X11518900Y2667000D03*
G01*
X7277100Y1168400D03*
G01*
X7277100Y1930400D03*
D17*
G01*
X6477000Y2573020D03*
G01*
X6477000Y1922779D03*
D18*
G01*
X11188700Y1422400D03*
G01*
X11188700Y914400D03*
D20*
G01*
X10883900Y2095500D03*
G01*
X11087100Y2095500D03*
G01*
X11290300Y2095500D03*
D21*
G01*
X11493500Y2095500D03*
G01*
X10680700Y2095500D03*
D20*
G01*
X762000Y4000500D03*
G01*
X965200Y4000500D03*
G01*
X1168400Y4000500D03*
D21*
G01*
X1371600Y4000500D03*
G01*
X558800Y4000500D03*
D22*
G01*
X6224904Y928192D03*
D23*
G01*
X6479920Y928217D03*
G01*
X6734911Y928217D03*
D24*
G01*
X5257800Y3606800D03*
D10*
G01*
X5511800Y3606800D03*
G01*
X5765800Y3606800D03*
G01*
X6019800Y3606800D03*
G01*
X6019800Y4368800D03*
G01*
X5765800Y4368800D03*
G01*
X5511800Y4368800D03*
G01*
X5257800Y4368800D03*
D24*
G01*
X3314700Y3619500D03*
D10*
G01*
X3568700Y3619500D03*
G01*
X3822700Y3619500D03*
G01*
X4076700Y3619500D03*
G01*
X4076700Y4381500D03*
G01*
X3822700Y4381500D03*
G01*
X3568700Y4381500D03*
G01*
X3314700Y4381500D03*
M02*
