G04 Layer: BottomSilkscreenLayer*
G04 EasyEDA v6.5.57, 2026-06-26 15:31:05*
G04 74b669f571ac4ae5bc3ee94b65b5d221,d2bf926b742241f7ae53671983aaaaa4,10*
G04 Gerber Generator version 0.2*
G04 Scale: 100 percent, Rotated: No, Reflected: No *
G04 Dimensions in millimeters *
G04 leading zeros omitted , absolute positions ,4 integer and 5 decimal *
%FSLAX45Y45*%
%MOMM*%

%ADD10C,0.3000*%
%ADD11C,0.0181*%

%LPD*%
D10*
X8477016Y2981960D02*
G01*
X8620198Y2927413D01*
X8477016Y2872869D02*
G01*
X8620198Y2927413D01*
X8511108Y2725595D02*
G01*
X8497470Y2732415D01*
X8483833Y2746049D01*
X8477016Y2759687D01*
X8477016Y2786959D01*
X8483833Y2800596D01*
X8497470Y2814233D01*
X8511108Y2821051D01*
X8531562Y2827868D01*
X8565652Y2827868D01*
X8586106Y2821051D01*
X8599744Y2814233D01*
X8613378Y2800596D01*
X8620198Y2786959D01*
X8620198Y2759687D01*
X8613378Y2746049D01*
X8599744Y2732415D01*
X8586106Y2725595D01*
X8511108Y2578323D02*
G01*
X8497470Y2585140D01*
X8483833Y2598778D01*
X8477016Y2612415D01*
X8477016Y2639687D01*
X8483833Y2653324D01*
X8497470Y2666959D01*
X8511108Y2673779D01*
X8531562Y2680596D01*
X8565652Y2680596D01*
X8586106Y2673779D01*
X8599744Y2666959D01*
X8613378Y2653324D01*
X8620198Y2639687D01*
X8620198Y2612415D01*
X8613378Y2598778D01*
X8599744Y2585140D01*
X8586106Y2578323D01*
X8749868Y2877146D02*
G01*
X8736230Y2883964D01*
X8722593Y2897601D01*
X8715776Y2911238D01*
X8715776Y2938510D01*
X8722593Y2952148D01*
X8736230Y2965782D01*
X8749868Y2972602D01*
X8770322Y2979420D01*
X8804412Y2979420D01*
X8824866Y2972602D01*
X8838504Y2965782D01*
X8852138Y2952148D01*
X8858958Y2938510D01*
X8858958Y2911238D01*
X8852138Y2897601D01*
X8838504Y2883964D01*
X8824866Y2877146D01*
X8804412Y2877146D01*
X8804412Y2911238D02*
G01*
X8804412Y2877146D01*
X8715776Y2832148D02*
G01*
X8858958Y2832148D01*
X8715776Y2832148D02*
G01*
X8858958Y2736692D01*
X8715776Y2736692D02*
G01*
X8858958Y2736692D01*
X8715776Y2691693D02*
G01*
X8858958Y2691693D01*
X8715776Y2691693D02*
G01*
X8715776Y2643964D01*
X8722593Y2623510D01*
X8736230Y2609875D01*
X8749868Y2603055D01*
X8770322Y2596238D01*
X8804412Y2596238D01*
X8824866Y2603055D01*
X8838504Y2609875D01*
X8852138Y2623510D01*
X8858958Y2643964D01*
X8858958Y2691693D01*
X8990230Y2883964D02*
G01*
X8976593Y2897601D01*
X8969776Y2918056D01*
X8969776Y2945328D01*
X8976593Y2965782D01*
X8990230Y2979420D01*
X9003868Y2979420D01*
X9017502Y2972602D01*
X9024322Y2965782D01*
X9031140Y2952148D01*
X9044777Y2911238D01*
X9051594Y2897601D01*
X9058412Y2890784D01*
X9072049Y2883964D01*
X9092504Y2883964D01*
X9106138Y2897601D01*
X9112958Y2918056D01*
X9112958Y2945328D01*
X9106138Y2965782D01*
X9092504Y2979420D01*
X9003868Y2736692D02*
G01*
X8990230Y2743509D01*
X8976593Y2757147D01*
X8969776Y2770784D01*
X8969776Y2798056D01*
X8976593Y2811693D01*
X8990230Y2825328D01*
X9003868Y2832148D01*
X9024322Y2838965D01*
X9058412Y2838965D01*
X9078866Y2832148D01*
X9092504Y2825328D01*
X9106138Y2811693D01*
X9112958Y2798056D01*
X9112958Y2770784D01*
X9106138Y2757147D01*
X9092504Y2743509D01*
X9078866Y2736692D01*
X8969776Y2691693D02*
G01*
X9112958Y2691693D01*
X9112958Y2691693D02*
G01*
X9112958Y2609875D01*
X9241690Y2883964D02*
G01*
X9228053Y2897601D01*
X9221236Y2918056D01*
X9221236Y2945328D01*
X9228053Y2965782D01*
X9241690Y2979420D01*
X9255328Y2979420D01*
X9268962Y2972602D01*
X9275782Y2965782D01*
X9282600Y2952148D01*
X9296237Y2911238D01*
X9303054Y2897601D01*
X9309872Y2890784D01*
X9323509Y2883964D01*
X9343964Y2883964D01*
X9357598Y2897601D01*
X9364418Y2918056D01*
X9364418Y2945328D01*
X9357598Y2965782D01*
X9343964Y2979420D01*
X9221236Y2838965D02*
G01*
X9364418Y2838965D01*
X9221236Y2838965D02*
G01*
X9221236Y2791239D01*
X9228053Y2770784D01*
X9241690Y2757147D01*
X9255328Y2750329D01*
X9275782Y2743509D01*
X9309872Y2743509D01*
X9330326Y2750329D01*
X9343964Y2757147D01*
X9357598Y2770784D01*
X9364418Y2791239D01*
X9364418Y2838965D01*
X9221236Y2643964D02*
G01*
X9364418Y2698511D01*
X9221236Y2643964D02*
G01*
X9364418Y2589420D01*
X9316692Y2678056D02*
G01*
X9316692Y2609875D01*
M02*
